<?xml version="1.0" encoding="UTF-8" standalone="no"?>
<!DOCTYPE svg PUBLIC "-//W3C//DTD SVG 1.1//EN" "http://www.w3.org/Graphics/SVG/1.1/DTD/svg11.dtd">
<svg width="100%" height="100%" viewBox="0 0 700 700" version="1.1" xmlns="http://www.w3.org/2000/svg" xmlns:xlink="http://www.w3.org/1999/xlink" xml:space="preserve" xmlns:serif="http://www.serif.com/" style="fill-rule:evenodd;clip-rule:evenodd;stroke-linejoin:round;stroke-miterlimit:2;">
    <g>
        <g transform="matrix(1.2596,0,0,1.26142,-89.0979,-3.75677)">
            <path d="M390.38,154.32L519.17,154.32L390.38,44.98L390.38,154.32Z" style="fill:rgb(25,30,68);fill-rule:nonzero;"/>
        </g>
        <g transform="matrix(1.2596,0,0,1.26142,-89.0979,-3.75677)">
            <path d="M404.95,411.98L111.21,411.98L111.21,51.17L346.99,51.17L346.99,170.76L346.99,170.756C346.994,177.901 349.834,184.752 354.885,189.807C359.935,194.858 366.787,197.698 373.932,197.698L508.822,197.698L508.822,322.248C512.232,321.947 515.677,321.767 519.162,321.767C524.798,321.771 530.424,322.181 536.002,322.99L536.002,191.4C536.002,185.853 533.798,180.537 529.877,176.615C525.959,172.693 520.638,170.49 515.096,170.49L386.336,170.49C383.117,170.49 380.035,169.213 377.757,166.939C375.484,164.666 374.207,161.58 374.207,158.365L374.207,44.865C374.207,39.322 372.004,34.002 368.086,30.084C364.164,26.162 358.843,23.959 353.301,23.959L95.541,23.959C89.173,23.959 84.01,29.123 84.01,35.49L84.01,427.65C84.01,434.021 89.174,439.181 95.541,439.181L401.741,439.181C401.744,430.017 402.826,420.884 404.959,411.974L404.95,411.98Z" style="fill:rgb(3,10,63);fill-rule:nonzero;"/>
        </g>
        <g transform="matrix(1.2596,0,0,1.26142,-89.0979,-3.75677)">
            <path d="M323.89,203.46C323.89,216.683 313.167,227.401 299.945,227.401C286.718,227.401 276,216.682 276,203.46C276,190.233 286.719,179.515 299.945,179.515C313.168,179.515 323.89,190.234 323.89,203.46" style="fill:rgb(6,16,97);fill-rule:nonzero;"/>
        </g>
        <g transform="matrix(1.2596,0,0,1.26142,-89.0979,-3.75677)">
            <path d="M442.25,350.57L404.863,280.218C403.945,278.491 402.34,277.234 400.441,276.757C398.543,276.281 396.535,276.632 394.91,277.718L345.844,310.616L345.844,310.62C344.031,311.831 341.758,312.12 339.703,311.401C337.645,310.679 336.051,309.03 335.399,306.952L319.739,257.124C319.157,255.272 317.828,253.753 316.071,252.933C314.317,252.112 312.293,252.069 310.504,252.808L270.391,269.39C267.391,270.628 263.934,269.616 262.079,266.952L235.798,229.229L235.798,229.233C234.372,227.186 231.954,226.069 229.473,226.303C226.989,226.538 224.829,228.092 223.813,230.366L157.86,378.206C156.907,380.346 157.099,382.823 158.376,384.788C159.649,386.749 161.833,387.936 164.173,387.936L413.533,387.936C420.498,373.678 430.263,360.971 442.248,350.573L442.25,350.57Z" style="fill-rule:nonzero;"/>
        </g>
        <g transform="matrix(1.2596,0,0,1.26142,-89.0979,-3.75677)">
            <path d="M519.16,342.35C493.476,342.35 468.844,352.553 450.683,370.713C432.519,388.873 422.316,413.506 422.316,439.193C422.316,464.877 432.519,489.509 450.683,507.67C468.843,525.83 493.476,536.033 519.16,536.033C544.848,536.033 569.476,525.83 587.64,507.67C605.8,489.506 616.003,464.877 616.003,439.19C616.003,413.506 605.8,388.874 587.64,370.713C569.476,352.553 544.843,342.35 519.16,342.35ZM502.816,386.213C502.82,381.6 504.769,377.205 508.187,374.104C511.601,371.002 516.168,369.487 520.757,369.928C524.874,370.44 528.659,372.456 531.378,375.584C534.101,378.717 535.57,382.745 535.503,386.893L535.503,444.881C535.495,450.713 532.378,456.096 527.323,459.01C522.273,461.925 516.05,461.925 510.995,459.01C505.945,456.096 502.827,450.714 502.816,444.881L502.816,386.213ZM519.16,508.533C514.695,508.533 510.41,506.756 507.254,503.599C504.098,500.443 502.32,496.158 502.32,491.693C502.32,487.225 504.098,482.943 507.254,479.787C510.41,476.627 514.695,474.854 519.16,474.854C523.629,474.854 527.91,476.627 531.066,479.787C534.226,482.944 536,487.225 536,491.693C536,496.158 534.226,500.443 531.066,503.599C527.91,506.756 523.628,508.533 519.16,508.533Z" style="fill:rgb(6,16,97);fill-rule:nonzero;"/>
        </g>
    </g>
</svg>
